G75*
%MOIN*%
%OFA0B0*%
%FSLAX25Y25*%
%IPPOS*%
%LPD*%
%AMOC8*
5,1,8,0,0,1.08239X$1,22.5*
%
%ADD10C,0.07400*%
%ADD11C,0.06500*%
%ADD12C,0.06400*%
%ADD13C,0.01000*%
D10*
X0011000Y0036000D03*
X0028500Y0036000D03*
X0028500Y0066000D03*
X0011000Y0066000D03*
D11*
X0051000Y0063500D03*
X0061000Y0063500D03*
D12*
X0013500Y0014200D02*
X0013500Y0007800D01*
X0023500Y0007800D02*
X0023500Y0014200D01*
X0033500Y0014200D02*
X0033500Y0007800D01*
X0043500Y0007800D02*
X0043500Y0014200D01*
X0053500Y0014200D02*
X0053500Y0007800D01*
X0063500Y0007800D02*
X0063500Y0014200D01*
X0073500Y0014200D02*
X0073500Y0007800D01*
X0083500Y0007800D02*
X0083500Y0014200D01*
X0093500Y0014200D02*
X0093500Y0007800D01*
X0103500Y0007800D02*
X0103500Y0014200D01*
X0071000Y0032800D02*
X0071000Y0039200D01*
X0061000Y0039200D02*
X0061000Y0032800D01*
X0051000Y0032800D02*
X0051000Y0039200D01*
D13*
X0051000Y0036000D02*
X0050500Y0035200D01*
X0050500Y0018100D01*
X0044200Y0011800D01*
X0043500Y0011000D01*
X0038800Y0015400D02*
X0038800Y0005500D01*
X0041500Y0002800D01*
X0055000Y0002800D01*
X0063100Y0010900D01*
X0063500Y0011000D01*
X0071200Y0023500D02*
X0082900Y0011800D01*
X0083500Y0011000D01*
X0071200Y0023500D02*
X0071200Y0035200D01*
X0071000Y0036000D01*
X0071200Y0036100D01*
X0051400Y0055900D01*
X0051400Y0063100D01*
X0051000Y0063500D01*
X0048700Y0068500D02*
X0055900Y0068500D01*
X0060400Y0064000D01*
X0061000Y0063500D01*
X0061300Y0063100D01*
X0102700Y0021700D01*
X0102700Y0011800D01*
X0103500Y0011000D01*
X0038800Y0015400D02*
X0028900Y0025300D01*
X0028900Y0035200D01*
X0028500Y0036000D01*
X0023500Y0043300D02*
X0048700Y0068500D01*
X0023500Y0043300D02*
X0023500Y0011000D01*
M02*
