G75*
%MOIN*%
%OFA0B0*%
%FSLAX25Y25*%
%IPPOS*%
%LPD*%
%AMOC8*
5,1,8,0,0,1.08239X$1,22.5*
%
%ADD10R,0.09500X0.03200*%
%ADD11C,0.04000*%
%ADD12C,0.04123*%
%ADD13C,0.03162*%
%ADD14C,0.07200*%
%ADD15R,0.04737X0.05131*%
D10*
X0083200Y0053500D03*
X0083200Y0058500D03*
X0083200Y0063500D03*
X0083200Y0068500D03*
X0103800Y0068500D03*
X0103800Y0063500D03*
X0103800Y0058500D03*
X0103800Y0053500D03*
D11*
X0028500Y0036000D03*
X0011000Y0036000D03*
D12*
X0011000Y0066000D03*
X0028500Y0066000D03*
D13*
X0051000Y0063500D03*
X0061000Y0063500D03*
D14*
X0013500Y0014200D02*
X0013500Y0007800D01*
X0023500Y0007800D02*
X0023500Y0014200D01*
X0033500Y0014200D02*
X0033500Y0007800D01*
X0043500Y0007800D02*
X0043500Y0014200D01*
X0053500Y0014200D02*
X0053500Y0007800D01*
X0063500Y0007800D02*
X0063500Y0014200D01*
X0073500Y0014200D02*
X0073500Y0007800D01*
X0083500Y0007800D02*
X0083500Y0014200D01*
X0093500Y0014200D02*
X0093500Y0007800D01*
X0103500Y0007800D02*
X0103500Y0014200D01*
X0071000Y0032800D02*
X0071000Y0039200D01*
X0061000Y0039200D02*
X0061000Y0032800D01*
X0051000Y0032800D02*
X0051000Y0039200D01*
D15*
X0094500Y0042221D03*
X0094500Y0035529D03*
X0104500Y0035404D03*
X0104500Y0042096D03*
M02*
